# xmcd
#
# Track frame offsets: 
#        150
#        16787
#        30214
#        49004
#        64681
#        79308
#        95083
#        115860
#        130052
#        149074
#        165591
#        181418
#
# Disc length: 2610 seconds
#
# Revision: 0
# Processed by: cddbd v1.5.2PL0 Copyright (c) Steve Scherf et al.
# Submitted via: ExactAudioCopy v1.0b4
#
DISCID=9a0a300c
DTITLE=Charles Burton Blues Band - The Charles Burton Blues Band
DYEAR=2004
DGENRE=Blues, Electric Blues
TTITLE0=Killing Floor
TTITLE1=Mellow Down Easy
TTITLE2=It Hurts Me Too
TTITLE3=Hideaway
TTITLE4=Oh, Prettty Woman
TTITLE5=Hot Rod Lincoln
TTITLE6=Mother Earth
TTITLE7=Stranger Blues
TTITLE8=Blue Shadows
TTITLE9=Shake Your Hips
TTITLE10=All Your Love (I Miss Loving)
TTITLE11=Caledonia
EXTD=
EXTT0=
EXTT1=
EXTT2=
EXTT3=
EXTT4=
EXTT5=
EXTT6=
EXTT7=
EXTT8=
EXTT9=
EXTT10=
EXTT11=
PLAYORDER=
